<svg xmlns="http://www.w3.org/2000/svg" viewBox="0 0 500 750" role="img" aria-labelledby="title desc">
  <title id="title">Inception poster</title>
  <desc id="desc">A cinematic blue city maze poster for Inception.</desc>
  <defs>
    <linearGradient id="bg" x1="0" y1="0" x2="1" y2="1">
      <stop offset="0" stop-color="#07111f"/>
      <stop offset="0.48" stop-color="#132b4a"/>
      <stop offset="1" stop-color="#05070c"/>
    </linearGradient>
    <linearGradient id="gold" x1="0" y1="0" x2="1" y2="1">
      <stop offset="0" stop-color="#ffd36a"/>
      <stop offset="1" stop-color="#ff8a00"/>
    </linearGradient>
    <filter id="soft">
      <feGaussianBlur stdDeviation="4"/>
    </filter>
  </defs>
  <rect width="500" height="750" fill="url(#bg)"/>
  <circle cx="250" cy="225" r="170" fill="#1f6f9f" opacity="0.22" filter="url(#soft)"/>
  <g fill="none" stroke="#8cc7e8" stroke-width="8" opacity="0.8">
    <path d="M70 560V170h360v390"/>
    <path d="M105 525V205h290v320"/>
    <path d="M140 490V240h220v250"/>
    <path d="M175 455V275h150v180"/>
    <path d="M210 420V310h80v110"/>
  </g>
  <g fill="#0d1726" opacity="0.9">
    <rect x="88" y="520" width="48" height="130"/>
    <rect x="155" y="460" width="46" height="190"/>
    <rect x="223" y="500" width="54" height="150"/>
    <rect x="300" y="430" width="44" height="220"/>
    <rect x="365" y="485" width="50" height="165"/>
  </g>
  <g fill="#86d6ff" opacity="0.35">
    <rect x="101" y="540" width="9" height="22"/>
    <rect x="171" y="484" width="9" height="22"/>
    <rect x="239" y="523" width="9" height="22"/>
    <rect x="315" y="455" width="9" height="22"/>
    <rect x="382" y="508" width="9" height="22"/>
  </g>
  <path d="M250 96c52 58 52 120 0 186-52-66-52-128 0-186z" fill="#d7f4ff" opacity="0.2"/>
  <text x="250" y="662" text-anchor="middle" fill="url(#gold)" font-family="Arial, Helvetica, sans-serif" font-size="50" font-weight="800">INCEPTION</text>
  <text x="250" y="704" text-anchor="middle" fill="#cbd5e1" font-family="Arial, Helvetica, sans-serif" font-size="17" letter-spacing="4">DREAM IS REAL</text>
</svg>
